<?xml version="1.0" encoding="UTF-8" standalone="no"?>
<!DOCTYPE svg PUBLIC "-//W3C//DTD SVG 1.1//EN" "http://www.w3.org/Graphics/SVG/1.1/DTD/svg11.dtd">
<svg width="100%" height="100%" viewBox="0 0 828 832" version="1.1" xmlns="http://www.w3.org/2000/svg" xmlns:xlink="http://www.w3.org/1999/xlink" xml:space="preserve" xmlns:serif="http://www.serif.com/" style="fill-rule:evenodd;clip-rule:evenodd;stroke-linecap:round;">
    <g transform="matrix(1,0,0,1,-901.550613,-3340.614453)">
        <g transform="matrix(1.183711,0,0,1.183711,1315.37003,3756.431383)">
            <g transform="matrix(1,0,0,1,-416.666667,-416.666667)">
                <clipPath id="_clip1">
                    <rect x="67.072" y="65.384" width="699.19" height="702.565"/>
                </clipPath>
                <g clip-path="url(#_clip1)">
                    <g transform="matrix(4.166667,0,0,4.166667,0,0)">
                        <path d="M100,50L100,26" style="fill:none;fill-rule:nonzero;stroke:rgb(17,17,17);stroke-width:5px;"/>
                    </g>
                    <g transform="matrix(4.166667,0,0,4.166667,0,0)">
                        <path d="M120.337,54.323L130.099,32.398" style="fill:none;fill-rule:nonzero;stroke:rgb(17,17,17);stroke-width:5px;"/>
                    </g>
                    <g transform="matrix(4.166667,0,0,4.166667,0,0)">
                        <path d="M137.157,66.543L154.993,50.484" style="fill:none;fill-rule:nonzero;stroke:rgb(17,17,17);stroke-width:5px;"/>
                    </g>
                    <g transform="matrix(4.166667,0,0,4.166667,0,0)">
                        <path d="M147.553,84.549L170.378,77.133" style="fill:none;fill-rule:nonzero;stroke:rgb(17,17,17);stroke-width:5px;"/>
                    </g>
                    <g transform="matrix(4.166667,0,0,4.166667,0,0)">
                        <path d="M149.726,105.226L173.595,107.735" style="fill:none;fill-rule:nonzero;stroke:rgb(17,17,17);stroke-width:5px;"/>
                    </g>
                    <g transform="matrix(4.166667,0,0,4.166667,0,0)">
                        <path d="M143.301,125L164.086,137" style="fill:none;fill-rule:nonzero;stroke:rgb(17,17,17);stroke-width:5px;"/>
                    </g>
                    <g transform="matrix(4.166667,0,0,4.166667,0,0)">
                        <path d="M129.389,140.451L143.496,159.867" style="fill:none;fill-rule:nonzero;stroke:rgb(17,17,17);stroke-width:5px;"/>
                    </g>
                    <g transform="matrix(4.166667,0,0,4.166667,0,0)">
                        <path d="M110.396,148.907L115.385,172.383" style="fill:none;fill-rule:nonzero;stroke:rgb(17,17,17);stroke-width:5px;"/>
                    </g>
                    <g transform="matrix(4.166667,0,0,4.166667,0,0)">
                        <path d="M89.604,148.907L84.615,172.383" style="fill:none;fill-rule:nonzero;stroke:rgb(17,17,17);stroke-width:5px;"/>
                    </g>
                    <g transform="matrix(4.166667,0,0,4.166667,0,0)">
                        <path d="M70.611,140.451L56.504,159.867" style="fill:none;fill-rule:nonzero;stroke:rgb(17,17,17);stroke-width:5px;"/>
                    </g>
                    <g transform="matrix(4.166667,0,0,4.166667,0,0)">
                        <path d="M56.699,125L35.914,137" style="fill:none;fill-rule:nonzero;stroke:rgb(17,17,17);stroke-width:5px;"/>
                    </g>
                    <g transform="matrix(4.166667,0,0,4.166667,0,0)">
                        <path d="M50.274,105.226L26.405,107.735" style="fill:none;fill-rule:nonzero;stroke:rgb(17,17,17);stroke-width:5px;"/>
                    </g>
                    <g transform="matrix(4.166667,0,0,4.166667,0,0)">
                        <path d="M52.447,84.549L29.622,77.133" style="fill:none;fill-rule:nonzero;stroke:rgb(17,17,17);stroke-width:5px;"/>
                    </g>
                    <g transform="matrix(4.166667,0,0,4.166667,0,0)">
                        <path d="M62.843,66.543L45.007,50.484" style="fill:none;fill-rule:nonzero;stroke:rgb(17,17,17);stroke-width:5px;"/>
                    </g>
                    <g transform="matrix(4.166667,0,0,4.166667,0,0)">
                        <path d="M79.663,54.323L69.901,32.398" style="fill:none;fill-rule:nonzero;stroke:rgb(17,17,17);stroke-width:5px;"/>
                    </g>
                    <g transform="matrix(4.166667,0,0,4.166667,0,0)">
                        <path d="M115.385,27.617L112.891,39.355" style="fill:none;fill-rule:nonzero;stroke:rgb(17,17,17);stroke-width:5px;"/>
                    </g>
                    <g transform="matrix(4.166667,0,0,4.166667,0,0)">
                        <path d="M143.496,40.133L136.443,49.841" style="fill:none;fill-rule:nonzero;stroke:rgb(17,17,17);stroke-width:5px;"/>
                    </g>
                    <g transform="matrix(4.166667,0,0,4.166667,0,0)">
                        <path d="M164.086,63L153.694,69" style="fill:none;fill-rule:nonzero;stroke:rgb(17,17,17);stroke-width:5px;"/>
                    </g>
                    <g transform="matrix(4.166667,0,0,4.166667,0,0)">
                        <path d="M173.595,92.265L161.66,93.519" style="fill:none;fill-rule:nonzero;stroke:rgb(17,17,17);stroke-width:5px;"/>
                    </g>
                    <g transform="matrix(4.166667,0,0,4.166667,0,0)">
                        <path d="M170.378,122.867L158.966,119.159" style="fill:none;fill-rule:nonzero;stroke:rgb(17,17,17);stroke-width:5px;"/>
                    </g>
                    <g transform="matrix(4.166667,0,0,4.166667,0,0)">
                        <path d="M154.993,149.516L146.075,141.486" style="fill:none;fill-rule:nonzero;stroke:rgb(17,17,17);stroke-width:5px;"/>
                    </g>
                    <g transform="matrix(4.166667,0,0,4.166667,0,0)">
                        <path d="M130.099,167.602L125.218,156.64" style="fill:none;fill-rule:nonzero;stroke:rgb(17,17,17);stroke-width:5px;"/>
                    </g>
                    <g transform="matrix(4.166667,0,0,4.166667,0,0)">
                        <path d="M100,174L100,162" style="fill:none;fill-rule:nonzero;stroke:rgb(17,17,17);stroke-width:5px;"/>
                    </g>
                    <g transform="matrix(4.166667,0,0,4.166667,0,0)">
                        <path d="M69.901,167.602L74.782,156.64" style="fill:none;fill-rule:nonzero;stroke:rgb(17,17,17);stroke-width:5px;"/>
                    </g>
                    <g transform="matrix(4.166667,0,0,4.166667,0,0)">
                        <path d="M45.007,149.516L53.925,141.486" style="fill:none;fill-rule:nonzero;stroke:rgb(17,17,17);stroke-width:5px;"/>
                    </g>
                    <g transform="matrix(4.166667,0,0,4.166667,0,0)">
                        <path d="M29.622,122.867L41.034,119.159" style="fill:none;fill-rule:nonzero;stroke:rgb(17,17,17);stroke-width:5px;"/>
                    </g>
                    <g transform="matrix(4.166667,0,0,4.166667,0,0)">
                        <path d="M26.405,92.265L38.34,93.519" style="fill:none;fill-rule:nonzero;stroke:rgb(17,17,17);stroke-width:5px;"/>
                    </g>
                    <g transform="matrix(4.166667,0,0,4.166667,0,0)">
                        <path d="M35.914,63L46.306,69" style="fill:none;fill-rule:nonzero;stroke:rgb(17,17,17);stroke-width:5px;"/>
                    </g>
                    <g transform="matrix(4.166667,0,0,4.166667,0,0)">
                        <path d="M56.504,40.133L63.557,49.841" style="fill:none;fill-rule:nonzero;stroke:rgb(17,17,17);stroke-width:5px;"/>
                    </g>
                    <g transform="matrix(4.166667,0,0,4.166667,0,0)">
                        <path d="M84.615,27.617L87.109,39.355" style="fill:none;fill-rule:nonzero;stroke:rgb(17,17,17);stroke-width:5px;"/>
                    </g>
                    <g transform="matrix(4.166667,0,0,4.166667,0,0)">
                        <circle cx="107.901" cy="62.83" r="4" style="fill:rgb(17,17,17);"/>
                    </g>
                    <g transform="matrix(4.166667,0,0,4.166667,0,0)">
                        <circle cx="122.336" cy="69.257" r="4" style="fill:rgb(17,17,17);"/>
                    </g>
                    <g transform="matrix(4.166667,0,0,4.166667,0,0)">
                        <circle cx="132.909" cy="81" r="4" style="fill:rgb(17,17,17);"/>
                    </g>
                    <g transform="matrix(4.166667,0,0,4.166667,0,0)">
                        <circle cx="137.792" cy="96.028" r="4" style="fill:rgb(17,17,17);"/>
                    </g>
                    <g transform="matrix(4.166667,0,0,4.166667,0,0)">
                        <circle cx="136.14" cy="111.743" r="4" style="fill:rgb(17,17,17);"/>
                    </g>
                    <g transform="matrix(4.166667,0,0,4.166667,0,0)">
                        <circle cx="128.24" cy="125.427" r="4" style="fill:rgb(17,17,17);"/>
                    </g>
                    <g transform="matrix(4.166667,0,0,4.166667,0,0)">
                        <circle cx="115.456" cy="134.715" r="4" style="fill:rgb(17,17,17);"/>
                    </g>
                    <g transform="matrix(4.166667,0,0,4.166667,0,0)">
                        <circle cx="100" cy="138" r="4" style="fill:rgb(17,17,17);"/>
                    </g>
                    <g transform="matrix(4.166667,0,0,4.166667,0,0)">
                        <circle cx="84.544" cy="134.715" r="4" style="fill:rgb(17,17,17);"/>
                    </g>
                    <g transform="matrix(4.166667,0,0,4.166667,0,0)">
                        <circle cx="71.76" cy="125.427" r="4" style="fill:rgb(17,17,17);"/>
                    </g>
                    <g transform="matrix(4.166667,0,0,4.166667,0,0)">
                        <circle cx="63.86" cy="111.743" r="4" style="fill:rgb(17,17,17);"/>
                    </g>
                    <g transform="matrix(4.166667,0,0,4.166667,0,0)">
                        <circle cx="62.208" cy="96.028" r="4" style="fill:rgb(17,17,17);"/>
                    </g>
                    <g transform="matrix(4.166667,0,0,4.166667,0,0)">
                        <circle cx="67.091" cy="81" r="4" style="fill:rgb(17,17,17);"/>
                    </g>
                    <g transform="matrix(4.166667,0,0,4.166667,0,0)">
                        <circle cx="77.664" cy="69.257" r="4" style="fill:rgb(17,17,17);"/>
                    </g>
                    <g transform="matrix(4.166667,0,0,4.166667,0,0)">
                        <circle cx="92.099" cy="62.83" r="4" style="fill:rgb(17,17,17);"/>
                    </g>
                </g>
            </g>
        </g>
    </g>
</svg>
