<?xml version="1.0" encoding="UTF-8" standalone="no"?><!DOCTYPE svg PUBLIC "-//W3C//DTD SVG 1.1//EN" "http://www.w3.org/Graphics/SVG/1.1/DTD/svg11.dtd"><svg width="100%" height="100%" viewBox="0 0 4258 1348" version="1.1" xmlns="http://www.w3.org/2000/svg" xmlns:xlink="http://www.w3.org/1999/xlink" xml:space="preserve" xmlns:serif="http://www.serif.com/" style="fill-rule:evenodd;clip-rule:evenodd;stroke-linejoin:round;stroke-miterlimit:2;"><g transform="matrix(3.262217,0,0,3.262217,-2241.299025,-274.048112)"><g><g transform="matrix(449.592,0,0,449.592,682.551883,405.015396)"><path d="M0.182,-0l-0.172,-0.7l0.127,0l0.133,0.607l0.004,-0l0.152,-0.607l0.138,0l0.156,0.607l0.003,-0l0.13,-0.607l0.127,0l-0.173,0.7l-0.169,-0l-0.143,-0.547l-0.003,0l-0.141,0.547l-0.169,-0Z" style="fill:#262625;fill-rule:nonzero;"/></g><g transform="matrix(449.592,0,0,449.592,1127.647963,405.015396)"><path d="M0.06,-0l0,-0.496l0.12,0l0,0.496l-0.12,-0Zm0.06,-0.572c-0.022,0 -0.04,-0.007 -0.054,-0.02c-0.014,-0.013 -0.021,-0.03 -0.022,-0.051c0,-0.02 0.007,-0.037 0.022,-0.05c0.014,-0.014 0.033,-0.02 0.054,-0.02c0.022,0 0.04,0.007 0.055,0.02c0.014,0.014 0.022,0.03 0.021,0.05c0,0.02 -0.007,0.037 -0.021,0.05c-0.014,0.014 -0.033,0.02 -0.055,0.02Z" style="fill:#262625;fill-rule:nonzero;"/></g><g transform="matrix(449.592,0,0,449.592,1235.550043,405.015396)"><path d="M0.25,0.012c-0.043,0 -0.081,-0.007 -0.114,-0.021c-0.033,-0.014 -0.06,-0.034 -0.08,-0.06c-0.02,-0.025 -0.032,-0.055 -0.035,-0.088l0.12,0c0.004,0.013 0.01,0.026 0.018,0.038c0.008,0.012 0.02,0.022 0.035,0.029c0.015,0.007 0.033,0.011 0.054,0.011c0.019,0 0.035,-0.003 0.048,-0.009c0.013,-0.006 0.022,-0.013 0.028,-0.022c0.006,-0.009 0.009,-0.019 0.009,-0.029c0,-0.015 -0.004,-0.026 -0.013,-0.034c-0.009,-0.008 -0.021,-0.015 -0.038,-0.02c-0.017,-0.006 -0.036,-0.011 -0.059,-0.017c-0.021,-0.006 -0.042,-0.012 -0.064,-0.019c-0.022,-0.007 -0.042,-0.015 -0.06,-0.025c-0.018,-0.01 -0.033,-0.023 -0.044,-0.039c-0.011,-0.016 -0.017,-0.036 -0.017,-0.061c0,-0.029 0.008,-0.055 0.024,-0.078c0.016,-0.023 0.038,-0.041 0.068,-0.054c0.029,-0.013 0.065,-0.02 0.106,-0.02c0.057,0 0.103,0.014 0.138,0.04c0.035,0.027 0.055,0.065 0.061,0.114l-0.114,0c-0.003,-0.02 -0.013,-0.035 -0.028,-0.046c-0.015,-0.011 -0.035,-0.016 -0.059,-0.016c-0.025,-0 -0.045,0.005 -0.059,0.015c-0.014,0.01 -0.02,0.022 -0.02,0.037c0,0.011 0.004,0.02 0.013,0.027c0.008,0.007 0.021,0.014 0.037,0.019c0.016,0.005 0.036,0.011 0.058,0.018c0.035,0.009 0.066,0.019 0.095,0.029c0.029,0.01 0.052,0.025 0.069,0.044c0.017,0.019 0.026,0.045 0.026,0.078c0.001,0.031 -0.007,0.059 -0.024,0.083c-0.017,0.024 -0.04,0.043 -0.071,0.058c-0.031,0.014 -0.067,0.021 -0.109,0.021Z" style="fill:#262625;fill-rule:nonzero;"/></g><g transform="matrix(449.592,0,0,449.592,1451.803795,405.015396)"><path d="M0.05,0.205l0,-0.701l0.103,0l0.008,0.085l0.003,0c0.013,-0.02 0.028,-0.037 0.045,-0.051c0.018,-0.014 0.038,-0.025 0.061,-0.033c0.023,-0.008 0.048,-0.012 0.076,-0.012c0.047,0 0.089,0.011 0.124,0.034c0.035,0.023 0.063,0.053 0.082,0.093c0.02,0.039 0.029,0.084 0.029,0.134c0,0.05 -0.01,0.095 -0.029,0.134c-0.02,0.039 -0.047,0.07 -0.083,0.092c-0.036,0.023 -0.079,0.034 -0.128,0.034c-0.04,0 -0.074,-0.008 -0.103,-0.023c-0.029,-0.016 -0.051,-0.035 -0.068,-0.059l0,0.275l-0.12,0Zm0.265,-0.293c0.029,0 0.055,-0.007 0.077,-0.02c0.022,-0.014 0.038,-0.032 0.05,-0.056c0.012,-0.024 0.018,-0.051 0.018,-0.083c0,-0.031 -0.006,-0.059 -0.018,-0.083c-0.012,-0.024 -0.029,-0.042 -0.05,-0.056c-0.022,-0.014 -0.047,-0.021 -0.077,-0.021c-0.029,0 -0.055,0.007 -0.077,0.021c-0.022,0.014 -0.039,0.032 -0.051,0.056c-0.012,0.024 -0.018,0.051 -0.018,0.083c0,0.032 0.006,0.06 0.018,0.083c0.012,0.024 0.029,0.042 0.051,0.056c0.022,0.014 0.048,0.02 0.077,0.021Z" style="fill:#262625;fill-rule:nonzero;"/></g><g transform="matrix(449.592,0,0,449.592,1725.605323,405.015396)"><path d="M0.06,-0l0,-0.496l0.12,0l0,0.496l-0.12,-0Zm0.06,-0.572c-0.022,0 -0.04,-0.007 -0.054,-0.02c-0.014,-0.013 -0.021,-0.03 -0.022,-0.051c0,-0.02 0.007,-0.037 0.022,-0.05c0.014,-0.014 0.033,-0.02 0.054,-0.02c0.022,0 0.04,0.007 0.055,0.02c0.014,0.014 0.022,0.03 0.021,0.05c0,0.02 -0.007,0.037 -0.021,0.05c-0.014,0.014 -0.033,0.02 -0.055,0.02Z" style="fill:#262625;fill-rule:nonzero;"/></g><g transform="matrix(449.592,0,0,449.592,1833.507403,405.015396)"><path d="M0.264,-0c-0.034,-0 -0.064,-0.005 -0.088,-0.016c-0.025,-0.011 -0.045,-0.028 -0.059,-0.053c-0.014,-0.025 -0.021,-0.058 -0.021,-0.1l0,-0.231l-0.085,0l0,-0.096l0.085,0l0.014,-0.13l0.107,0l0,0.13l0.136,0l0,0.096l-0.137,0l0,0.231c0,0.027 0.006,0.046 0.017,0.056c0.011,0.01 0.029,0.014 0.056,0.014l0.06,0l0,0.099l-0.084,-0Z" style="fill:#262625;fill-rule:nonzero;"/></g></g></g></svg>