<?xml version="1.0" encoding="UTF-8" standalone="no"?><!DOCTYPE svg PUBLIC "-//W3C//DTD SVG 1.1//EN" "http://www.w3.org/Graphics/SVG/1.1/DTD/svg11.dtd"><svg width="100%" height="100%" viewBox="0 0 5286 1727" version="1.1" xmlns="http://www.w3.org/2000/svg" xmlns:xlink="http://www.w3.org/1999/xlink" xml:space="preserve" xmlns:serif="http://www.serif.com/" style="fill-rule:evenodd;clip-rule:evenodd;stroke-linejoin:round;stroke-miterlimit:2;"><g transform="matrix(3.262217,0,0,3.262217,-2245.422728,20.384301)"><g><g transform="matrix(576,0,0,576,682.551883,405.015396)"><path d="M0.189,-0l-0.179,-0.7l0.105,0l0.147,0.619l0.003,-0l0.168,-0.619l0.11,0l0.171,0.619l0.003,-0l0.145,-0.619l0.105,0l-0.18,0.7l-0.143,-0l-0.156,-0.554l-0.003,0l-0.154,0.554l-0.142,-0Z" style="fill:#262625;fill-rule:nonzero;"/></g><g transform="matrix(576,0,0,576,1245.303883,405.015396)"><path d="M0.061,-0l0,-0.496l0.1,0l0,0.496l-0.1,-0Zm0.05,-0.586c-0.019,0 -0.034,-0.006 -0.047,-0.019c-0.013,-0.012 -0.019,-0.028 -0.019,-0.046c0,-0.017 0.006,-0.032 0.019,-0.044c0.012,-0.012 0.028,-0.018 0.048,-0.018c0.019,0 0.034,0.006 0.047,0.018c0.013,0.012 0.019,0.027 0.019,0.045c-0,0.018 -0.006,0.033 -0.019,0.045c-0.013,0.012 -0.028,0.019 -0.047,0.019Z" style="fill:#262625;fill-rule:nonzero;"/></g><g transform="matrix(576,0,0,576,1373.175883,405.015396)"><path d="M0.244,0.012c-0.041,0 -0.078,-0.007 -0.11,-0.021c-0.032,-0.014 -0.058,-0.034 -0.077,-0.059c-0.019,-0.025 -0.031,-0.054 -0.036,-0.088l0.102,0c0.003,0.015 0.01,0.03 0.019,0.044c0.009,0.014 0.022,0.025 0.039,0.034c0.017,0.009 0.038,0.013 0.062,0.013c0.022,0 0.04,-0.003 0.054,-0.01c0.014,-0.007 0.025,-0.015 0.032,-0.026c0.007,-0.01 0.011,-0.022 0.011,-0.035c0,-0.016 -0.005,-0.029 -0.014,-0.039c-0.009,-0.01 -0.023,-0.018 -0.041,-0.024c-0.018,-0.007 -0.039,-0.013 -0.064,-0.019c-0.021,-0.006 -0.042,-0.012 -0.062,-0.019c-0.021,-0.007 -0.04,-0.015 -0.058,-0.025c-0.018,-0.01 -0.032,-0.023 -0.043,-0.039c-0.011,-0.016 -0.016,-0.036 -0.016,-0.06c0,-0.027 0.008,-0.052 0.023,-0.075c0.015,-0.022 0.037,-0.04 0.065,-0.053c0.028,-0.013 0.061,-0.02 0.1,-0.02c0.055,0 0.099,0.013 0.133,0.039c0.034,0.026 0.054,0.064 0.059,0.114l-0.097,0c-0.003,-0.024 -0.013,-0.043 -0.03,-0.056c-0.017,-0.013 -0.039,-0.019 -0.067,-0.019c-0.029,0 -0.051,0.006 -0.066,0.017c-0.015,0.012 -0.022,0.027 -0.022,0.045c0,0.012 0.004,0.022 0.012,0.03c0.008,0.008 0.021,0.015 0.038,0.021c0.017,0.006 0.038,0.013 0.064,0.02c0.032,0.009 0.062,0.018 0.09,0.029c0.028,0.011 0.051,0.025 0.069,0.044c0.018,0.019 0.026,0.044 0.026,0.077c0.001,0.031 -0.007,0.058 -0.023,0.082c-0.016,0.024 -0.039,0.043 -0.068,0.057c-0.029,0.014 -0.064,0.021 -0.105,0.021Z" style="fill:#262625;fill-rule:nonzero;"/></g><g transform="matrix(576,0,0,576,1642.167883,405.015396)"><path d="M0.051,0.205l0,-0.701l0.085,0l0.008,0.089l0.003,0c0.013,-0.021 0.029,-0.04 0.048,-0.054c0.019,-0.015 0.04,-0.026 0.063,-0.034c0.023,-0.008 0.049,-0.012 0.077,-0.012c0.047,0 0.089,0.011 0.124,0.034c0.035,0.023 0.063,0.054 0.082,0.093c0.02,0.039 0.03,0.084 0.03,0.133c0,0.049 -0.01,0.094 -0.03,0.133c-0.02,0.039 -0.047,0.07 -0.083,0.093c-0.036,0.023 -0.079,0.034 -0.13,0.034c-0.043,0 -0.079,-0.009 -0.109,-0.026c-0.03,-0.017 -0.052,-0.038 -0.069,-0.063l0,0.282l-0.1,0Zm0.26,-0.278c0.032,0 0.06,-0.007 0.084,-0.022c0.024,-0.015 0.042,-0.035 0.055,-0.061c0.013,-0.026 0.02,-0.057 0.02,-0.091c0,-0.035 -0.007,-0.065 -0.02,-0.091c-0.013,-0.026 -0.031,-0.046 -0.055,-0.061c-0.024,-0.015 -0.052,-0.022 -0.084,-0.022c-0.032,0 -0.06,0.008 -0.084,0.022c-0.024,0.015 -0.043,0.036 -0.056,0.061c-0.013,0.026 -0.02,0.056 -0.02,0.091c0,0.035 0.007,0.065 0.02,0.091c0.013,0.026 0.032,0.047 0.056,0.061c0.024,0.015 0.052,0.022 0.084,0.022Z" style="fill:#262625;fill-rule:nonzero;"/></g><g transform="matrix(576,0,0,576,1985.463883,405.015396)"><path d="M0.061,-0l0,-0.496l0.1,0l0,0.496l-0.1,-0Zm0.05,-0.586c-0.019,0 -0.034,-0.006 -0.047,-0.019c-0.013,-0.012 -0.019,-0.028 -0.019,-0.046c0,-0.017 0.006,-0.032 0.019,-0.044c0.012,-0.012 0.028,-0.018 0.048,-0.018c0.019,0 0.034,0.006 0.047,0.018c0.013,0.012 0.019,0.027 0.019,0.045c-0,0.018 -0.006,0.033 -0.019,0.045c-0.013,0.012 -0.028,0.019 -0.047,0.019Z" style="fill:#262625;fill-rule:nonzero;"/></g><g transform="matrix(576,0,0,576,2113.335883,405.015396)"><path d="M0.253,-0c-0.032,-0 -0.06,-0.005 -0.083,-0.015c-0.023,-0.01 -0.041,-0.027 -0.054,-0.05c-0.013,-0.023 -0.019,-0.055 -0.019,-0.095l0,-0.259l-0.085,0l0,-0.077l0.085,0l0.012,-0.124l0.088,0l0,0.124l0.142,0l0,0.077l-0.142,0l0,0.26c-0,0.031 0.006,0.051 0.018,0.062c0.012,0.011 0.033,0.016 0.062,0.016l0.056,0l0,0.081l-0.08,-0Z" style="fill:#262625;fill-rule:nonzero;"/></g></g></g></svg>